<svg width="20" height="20" viewBox="0 0 20 20" fill="none" xmlns="http://www.w3.org/2000/svg">
<path d="M0.688968 10.0434L0.688967 10.0424C0.687954 9.30717 1.28394 8.71036 2.02013 8.70935L18.0211 8.68738C18.7573 8.68637 19.3549 9.28154 19.356 10.0167L19.356 10.0177C19.357 10.7529 18.761 11.3497 18.0248 11.3507L2.0238 11.3727C1.2876 11.3737 0.68998 10.7785 0.688968 10.0434Z" fill="white"/>
<path d="M9.06927 2.98356C8.81883 2.73415 8.67786 2.3956 8.67737 2.0424C8.67688 1.68919 8.81692 1.35026 9.06668 1.10016C9.31643 0.85006 9.65545 0.709284 10.0091 0.708798C10.3628 0.708312 10.7022 0.848157 10.9527 1.09757L18.9637 9.07558C19.2071 9.31785 19.3474 9.64464 19.3553 9.98775C19.3633 10.3309 19.2382 10.6638 19.0062 10.917L11.6842 18.9161C11.4457 19.1769 11.1133 19.3324 10.76 19.3484C10.4067 19.3644 10.0615 19.2397 9.80033 19.0015C9.53916 18.7634 9.38341 18.4314 9.36736 18.0786C9.35131 17.7258 9.47627 17.381 9.71473 17.1202L15.529 10.768C15.7029 10.578 15.7967 10.3284 15.7908 10.071C15.7848 9.81374 15.6796 9.56865 15.4971 9.38692L9.06827 2.98457L9.06927 2.98356Z" fill="white"/>
</svg>
