<svg width="48" height="48" viewBox="0 0 48 48" fill="none" xmlns="http://www.w3.org/2000/svg">
<g clip-path="url(#clip0)">
<path d="M45.3389 27.1822C44.8297 27.084 44.3388 27.4171 44.2409 27.9254C42.3774 37.5967 33.8648 44.6161 24 44.6161C14.3431 44.6161 5.98212 37.8893 3.88578 28.533L4.13046 28.7777C4.31356 28.9608 4.55346 29.0524 4.79337 29.0524C5.03328 29.0524 5.27318 28.9608 5.45618 28.7778C5.82237 28.4117 5.82237 27.8182 5.45628 27.452L3.52831 25.524C3.35253 25.3481 3.11403 25.2493 2.8654 25.2493C2.61678 25.2493 2.37828 25.3481 2.20249 25.524L0.27462 27.452C-0.0914741 27.8181 -0.0914741 28.4116 0.274713 28.7778C0.640713 29.144 1.23443 29.1439 1.60053 28.7777L1.94759 28.4307C4.03981 38.905 13.2894 46.4911 24 46.4911C34.7619 46.4911 44.0487 38.8323 46.0821 28.2802C46.1801 27.7718 45.8473 27.2802 45.3389 27.1822Z" fill="#00337E"/>
<path d="M47.7253 19.2221C47.3593 18.8559 46.7656 18.856 46.3995 19.2222L46.0524 19.5693C43.9602 9.09495 34.7106 1.50879 24 1.50879C13.2381 1.50879 3.95127 9.1676 1.91793 19.7197C1.81996 20.2282 2.15268 20.7198 2.66108 20.8177C3.17015 20.9155 3.66111 20.5828 3.75908 20.0746C5.62274 10.4032 14.1353 3.38379 24 3.38379C33.6569 3.38379 42.0179 10.1106 44.1142 19.4669L43.8695 19.2222C43.5035 18.8561 42.91 18.856 42.5437 19.2221C42.1775 19.5882 42.1775 20.1817 42.5436 20.5479L44.4715 22.476C44.6473 22.6519 44.8858 22.7507 45.1344 22.7507C45.383 22.7507 45.6215 22.6519 45.7973 22.476L47.7252 20.5479C48.0916 20.1818 48.0916 19.5882 47.7253 19.2221Z" fill="#00337E"/>
<path d="M24.0001 39.8474C32.7383 39.8474 39.8475 32.7382 39.8475 24C39.8475 15.2617 32.7383 8.15259 24.0001 8.15259C15.2618 8.15259 8.15265 15.2617 8.15265 24C8.15265 32.7382 15.2618 39.8474 24.0001 39.8474ZM24.0001 10.0276C31.7045 10.0276 37.9725 16.2955 37.9725 24C37.9725 31.7045 31.7045 37.9724 24.0001 37.9724C16.2956 37.9724 10.0276 31.7045 10.0276 24C10.0276 16.2955 16.2956 10.0276 24.0001 10.0276Z" fill="#00337E"/>
<path d="M24.9893 28.1326C25.1029 28.1779 25.2201 28.1993 25.3354 28.1993C25.7082 28.1993 26.0607 27.9754 26.2068 27.6079L28.8013 21.0849C28.9927 20.6037 28.7577 20.0586 28.2767 19.8672C27.7958 19.676 27.2504 19.9107 27.0591 20.392L24.4646 26.915C24.2732 27.3961 24.5082 27.9413 24.9893 28.1326Z" fill="#00337E"/>
<path d="M30.2872 21.676H32.4397L30.15 26.8843C29.9416 27.3583 30.157 27.9115 30.631 28.1199C30.7538 28.1739 30.8818 28.1995 31.0079 28.1995C31.3684 28.1994 31.7122 27.9902 31.8665 27.639L34.7341 21.1159C34.8615 20.8259 34.8341 20.4913 34.661 20.2262C34.4879 19.961 34.1926 19.8011 33.8759 19.8011H30.2873C29.7696 19.8011 29.3498 20.221 29.3498 20.7386C29.3497 21.2561 29.7694 21.676 30.2872 21.676Z" fill="#00337E"/>
<path d="M18.2867 25.8129C18.4554 26.0985 18.7623 26.2738 19.094 26.2738H21.4122C21.4096 26.6193 21.4069 26.9504 21.4043 27.2534C21.3999 27.7712 21.816 28.1945 22.3337 28.199H22.342C22.8559 28.199 23.2748 27.7845 23.2793 27.2696C23.2814 27.0242 23.2842 26.676 23.2874 26.2688C23.7596 26.2201 24.1279 25.8212 24.1279 25.3363C24.1279 24.8555 23.7661 24.4593 23.2999 24.405C23.3083 22.8791 23.3115 21.3428 23.2924 21.1127C23.2422 20.5098 22.874 20.0164 22.3542 19.8554C21.8352 19.6949 21.2895 19.8885 20.8942 20.3736C20.5229 20.8289 18.9376 23.6791 18.2732 24.8834C18.1129 25.1739 18.1181 25.5272 18.2867 25.8129ZM21.4304 23.0896C21.429 23.4945 21.4271 23.9401 21.4245 24.3988H20.6886C20.9491 23.9346 21.2023 23.4873 21.4304 23.0896Z" fill="#00337E"/>
<path d="M17.7196 28.2478C18.2373 28.2413 18.6517 27.8163 18.6452 27.2986C18.6388 26.7849 18.2203 26.3729 17.7081 26.3729C17.704 26.3729 17.7 26.3729 17.696 26.373C17.1827 26.3793 16.6435 26.3841 16.1562 26.3865C16.4935 25.9298 16.9266 25.3314 17.4736 24.5498C17.9051 23.9333 18.1872 23.3472 18.3123 22.8078C18.343 22.6882 18.3685 22.519 18.3688 22.3438C18.3709 20.9064 17.1995 19.7371 15.7621 19.7371C14.5194 19.7371 13.4438 20.6213 13.2043 21.8395C13.1046 22.3475 13.4354 22.8403 13.9435 22.9401C14.452 23.0402 14.9444 22.709 15.0442 22.2009C15.1112 21.8597 15.4132 21.6121 15.7621 21.6121C16.1496 21.6121 16.4676 21.9149 16.4922 22.2962L16.4758 22.4245C16.4199 22.6383 16.2803 22.9848 15.9375 23.4746C14.9065 24.9476 14.2916 25.7528 13.9612 26.1854C13.5375 26.7401 13.3042 27.0456 13.4601 27.553C13.5519 27.8512 13.7861 28.0892 14.0873 28.1897C14.2124 28.2314 14.3126 28.2648 15.593 28.2648C16.0957 28.2647 16.7802 28.2596 17.7196 28.2478Z" fill="#00337E"/>
</g>
<defs>
<clipPath id="clip0">
<rect width="48" height="48" fill="white"/>
</clipPath>
</defs>
</svg>
