<svg width="48" height="48" viewBox="0 0 48 48" fill="none" xmlns="http://www.w3.org/2000/svg">
<path d="M45 5.25H42C42 5.05109 41.921 4.86032 41.7803 4.71967C41.6397 4.57902 41.4489 4.5 41.25 4.5H39.75V3H38.25V4.5H36.75V1.5H35.25V4.5H33.75C33.5511 4.5 33.3603 4.57902 33.2197 4.71967C33.079 4.86032 33 5.05109 33 5.25V6.75H12V5.25H10.5V6.75H9V3.75H7.5V6.75H5.25C5.05109 6.75 4.86032 6.82902 4.71967 6.96967C4.57902 7.11032 4.5 7.30109 4.5 7.5V10.5C4.5 10.6989 4.57902 10.8897 4.71967 11.0303C4.86032 11.171 5.05109 11.25 5.25 11.25H7.5V21.0949C6.95673 21.2351 6.46369 21.525 6.07687 21.9314C5.69006 22.3378 5.42498 22.8446 5.31174 23.3941C5.19849 23.9437 5.24163 24.514 5.43625 25.0402C5.63088 25.5665 5.96918 26.0276 6.41273 26.3712C6.85628 26.7148 7.38731 26.9272 7.9455 26.9841C8.50369 27.0411 9.06666 26.9403 9.57047 26.6934C10.0743 26.4464 10.4987 26.0631 10.7956 25.587C11.0925 25.1109 11.2499 24.5611 11.25 24H9.75C9.75 24.2967 9.66203 24.5867 9.4972 24.8334C9.33238 25.08 9.09811 25.2723 8.82403 25.3858C8.54994 25.4994 8.24834 25.5291 7.95736 25.4712C7.66639 25.4133 7.39912 25.2704 7.18934 25.0607C6.97956 24.8509 6.8367 24.5836 6.77882 24.2926C6.72094 24.0017 6.75065 23.7001 6.86418 23.426C6.97771 23.1519 7.16997 22.9176 7.41664 22.7528C7.66332 22.588 7.95333 22.5 8.25 22.5C8.44891 22.5 8.63968 22.421 8.78033 22.2803C8.92098 22.1397 9 21.9489 9 21.75V11.25H33V12.75C33 12.9489 33.079 13.1397 33.2197 13.2803C33.3603 13.421 33.5511 13.5 33.75 13.5H34.5V42H30.75C30.5511 42 30.3603 42.079 30.2197 42.2197C30.079 42.3603 30 42.5511 30 42.75V45.75C30 45.9489 30.079 46.1397 30.2197 46.2803C30.3603 46.421 30.5511 46.5 30.75 46.5H44.25C44.4489 46.5 44.6397 46.421 44.7803 46.2803C44.921 46.1397 45 45.9489 45 45.75V42.75C45 42.5511 44.921 42.3603 44.7803 42.2197C44.6397 42.079 44.4489 42 44.25 42H40.5V13.5H41.25C41.4489 13.5 41.6397 13.421 41.7803 13.2803C41.921 13.1397 42 12.9489 42 12.75V12.5077L45.2785 11.1964C45.4177 11.1407 45.537 11.0446 45.6211 10.9205C45.7051 10.7964 45.75 10.6499 45.75 10.5V6C45.75 5.80109 45.671 5.61032 45.5303 5.46967C45.3897 5.32902 45.1989 5.25 45 5.25ZM18.3107 8.25H22.1893L23.6893 9.75H19.8107L18.3107 8.25ZM17.6893 9.75H13.8107L12.3107 8.25H16.1893L17.6893 9.75ZM24.3107 8.25H28.1893L29.6893 9.75H25.8107L24.3107 8.25ZM6 9.75V8.25H7.5V9.75H6ZM9 8.25H10.1893L11.6893 9.75H9V8.25ZM31.8107 9.75L30.3107 8.25H33V9.75H31.8107ZM36 25.9393V22.0607L39 25.0607V28.9393L36 25.9393ZM39 31.0607V34.9393L36 31.9393V28.0607L39 31.0607ZM36 34.0607L39 37.0607V40.9393L36 37.9393V34.0607ZM39 22.9393L36 19.9393V16.0607L39 19.0607V22.9393ZM36 40.0607L37.9393 42H36V40.0607ZM43.5 45H31.5V43.5H43.5V45ZM39 16.9393L36 13.9393V13.5H39V16.9393ZM40.5 12H34.5V6H40.5V12ZM44.25 9.99216L42 10.8922V6.75H44.25V9.99216Z" fill="#00337E"/>
<path d="M5.25 40.5H6.75V43.5H5.25V40.5Z" fill="#00337E"/>
<path d="M8.25 40.5H9.75V43.5H8.25V40.5Z" fill="#00337E"/>
<path d="M11.25 40.5H12.75V43.5H11.25V40.5Z" fill="#00337E"/>
<path d="M30 30.75C30 30.5511 29.921 30.3603 29.7803 30.2197C29.6397 30.079 29.4489 30 29.25 30H27V23.25C27 23.0511 26.921 22.8603 26.7803 22.7197C26.6397 22.579 26.4489 22.5 26.25 22.5H14.25C14.0511 22.5 13.8603 22.579 13.7197 22.7197C13.579 22.8603 13.5 23.0511 13.5 23.25V30H5.25C5.05109 30 4.86032 30.079 4.71967 30.2197C4.57902 30.3603 4.5 30.5511 4.5 30.75V37.5H3C2.80109 37.5 2.61032 37.579 2.46967 37.7197C2.32902 37.8603 2.25 38.0511 2.25 38.25V45.75C2.25 45.9489 2.32902 46.1397 2.46967 46.2803C2.61032 46.421 2.80109 46.5 3 46.5H27C27.1989 46.5 27.3897 46.421 27.5303 46.2803C27.671 46.1397 27.75 45.9489 27.75 45.75V39H29.25C29.4489 39 29.6397 38.921 29.7803 38.7803C29.921 38.6397 30 38.4489 30 38.25V30.75ZM15 24H25.5V30H15V24ZM6 31.5H16.5V37.5H6V31.5ZM3.75 39H14.25V45H3.75V39ZM26.25 45H15.75V39H26.25V45ZM28.5 37.5H18V31.5H28.5V37.5Z" fill="#00337E"/>
<path d="M19.5 33H21V36H19.5V33Z" fill="#00337E"/>
<path d="M22.5 33H24V36H22.5V33Z" fill="#00337E"/>
<path d="M25.5 33H27V36H25.5V33Z" fill="#00337E"/>
<path d="M7.5 33H9V36H7.5V33Z" fill="#00337E"/>
<path d="M10.5 33H12V36H10.5V33Z" fill="#00337E"/>
<path d="M13.5 33H15V36H13.5V33Z" fill="#00337E"/>
<path d="M16.5 25.5H18V28.5H16.5V25.5Z" fill="#00337E"/>
<path d="M19.5 25.5H21V28.5H19.5V25.5Z" fill="#00337E"/>
<path d="M22.5 25.5H24V28.5H22.5V25.5Z" fill="#00337E"/>
<path d="M17.25 40.5H18.75V43.5H17.25V40.5Z" fill="#00337E"/>
<path d="M20.25 40.5H21.75V43.5H20.25V40.5Z" fill="#00337E"/>
<path d="M23.25 40.5H24.75V43.5H23.25V40.5Z" fill="#00337E"/>
</svg>
