<svg width="48" height="48" viewBox="0 0 48 48" fill="none" xmlns="http://www.w3.org/2000/svg">
<path d="M28.5 20.25C28.9142 20.25 29.25 19.9142 29.25 19.5C29.25 19.0858 28.9142 18.75 28.5 18.75C28.0858 18.75 27.75 19.0858 27.75 19.5C27.75 19.9142 28.0858 20.25 28.5 20.25Z" fill="#00337E"/>
<path d="M19.5 20.25C19.9142 20.25 20.25 19.9142 20.25 19.5C20.25 19.0858 19.9142 18.75 19.5 18.75C19.0858 18.75 18.75 19.0858 18.75 19.5C18.75 19.9142 19.0858 20.25 19.5 20.25Z" fill="#00337E"/>
<path d="M27 24H25.5C25.5 24.8273 24.8273 25.5 24 25.5C23.1727 25.5 22.5 24.8273 22.5 24H21C21 25.6545 22.3455 27 24 27C25.6545 27 27 25.6545 27 24Z" fill="#00337E"/>
<path d="M36.8423 35.4668L29.148 32.3182C28.2982 31.971 27.75 31.1535 27.75 30.2355V29.697C30.0578 28.1025 31.8202 25.8525 32.8192 23.25H33C35.0677 23.25 36.75 21.5677 36.75 19.5V14.112C37.6208 13.8015 38.25 12.9765 38.25 12C38.25 10.8225 37.3372 9.864 36.1838 9.76875C34.554 4.43325 29.6302 0.75 24 0.75C18.3682 0.75 13.446 4.4325 11.817 9.76875C10.6627 9.86325 9.75 10.8217 9.75 12C9.75 12.9765 10.3793 13.8015 11.25 14.112V19.5C11.25 21.5677 12.9323 23.25 15 23.25H15.1807C16.1797 25.8533 17.9423 28.1025 20.25 29.697V30.2355C20.25 31.1535 19.7017 31.9702 18.852 32.3182L11.1578 35.466C6.65775 37.3072 3.75 41.6377 3.75 46.5V47.25H44.25V46.5C44.25 41.6377 41.3423 37.3073 36.8423 35.4668ZM17.808 38.25L18.399 39.75H12.5228L11.967 38.25H17.808ZM11.9813 36.75L16.491 34.905L17.217 36.75H11.9813ZM18.75 42.75H12.75V41.25H18.75V42.75ZM12.75 44.25H18.75V45.75H12.75V44.25ZM17.8793 34.3372L18.9172 33.9128C20.0033 35.6535 21.924 36.75 24 36.75C26.0767 36.75 27.9967 35.6535 29.0828 33.912L30.1208 34.3365L27.75 40.3575V45.75H20.25V40.3575L17.8793 34.3372ZM31.509 34.905L36.018 36.75H30.783L31.509 34.905ZM35.25 42.75H29.25V41.25H35.25V42.75ZM29.25 44.25H35.25V45.75H29.25V44.25ZM35.478 39.75H29.6018L30.1927 38.25H36.0345L35.478 39.75ZM14.1157 15.8663C13.6117 15.9893 13.1512 16.215 12.75 16.5187V14.5988C13.1805 15.054 13.632 15.4815 14.1157 15.8663ZM14.535 14.25H33.465C31.3252 16.1655 28.56 17.25 25.6418 17.25H22.3575C19.4392 17.25 16.6747 16.1655 14.535 14.25ZM35.25 14.5995V16.5195C34.848 16.2157 34.3883 15.99 33.8843 15.867C34.368 15.4815 34.8195 15.054 35.25 14.5995ZM33.3105 21.7185C33.5948 20.607 33.75 19.4497 33.75 18.2633V17.388C34.6208 17.6985 35.25 18.5235 35.25 19.5C35.25 20.634 34.4033 21.5655 33.3105 21.7185ZM17.2372 4.51125L18.015 8.397L19.4858 8.10225L18.5917 3.633C19.3845 3.19875 20.2327 2.85975 21.1208 2.625L21.7552 8.33175L23.2463 8.166L22.599 2.34525C23.0595 2.289 23.526 2.25 24 2.25C24.474 2.25 24.9398 2.289 25.401 2.34675L24.7545 8.1675L26.2455 8.33325L26.8792 2.6265C27.7673 2.86125 28.6155 3.20025 29.4082 3.63525L28.5143 8.10375L29.985 8.3985L30.762 4.5135C32.499 5.81925 33.858 7.62075 34.6087 9.7515H13.3905C14.1412 7.61925 15.5002 5.817 17.2372 4.51125ZM12 11.25H36C36.414 11.25 36.75 11.5868 36.75 12C36.75 12.4132 36.414 12.75 36 12.75H12C11.586 12.75 11.25 12.4132 11.25 12C11.25 11.5868 11.586 11.25 12 11.25ZM12.75 19.5C12.75 18.5235 13.3792 17.6985 14.25 17.388V18.2633C14.25 19.4497 14.4053 20.607 14.6895 21.7185C13.5968 21.5655 12.75 20.634 12.75 19.5ZM15.75 18.2633V16.974C17.736 18.1185 20.0025 18.75 22.3582 18.75H25.6425C27.9982 18.75 30.264 18.1185 32.2507 16.974V18.2633C32.2507 23.5305 28.9462 28.1985 24.0007 29.9565C19.0545 28.1985 15.75 23.5305 15.75 18.2633ZM23.763 31.4618L24 31.5405L24.237 31.4618C24.9473 31.2248 25.6283 30.9353 26.2762 30.597C26.3775 31.6553 26.9145 32.601 27.7493 33.2265C26.9235 34.473 25.5158 35.25 24 35.25C22.4842 35.25 21.0765 34.473 20.2507 33.2265C21.0847 32.601 21.6217 31.6545 21.723 30.597C22.371 30.9345 23.0527 31.2248 23.763 31.4618ZM10.1505 37.6657L11.25 40.6343V45.75H5.27625C5.514 42.3997 7.33725 39.417 10.1505 37.6657ZM36.75 45.75V40.6343L37.8495 37.6657C40.6628 39.4163 42.486 42.3997 42.7238 45.75H36.75Z" fill="#00337E"/>
<path d="M22.6072 44.6138L23.8927 45.3863L26.8253 40.5H24.5752L26.1428 37.8863L24.8573 37.1138L21.9247 42H24.1747L22.6072 44.6138Z" fill="#00337E"/>
</svg>
