<!-- Generator: Adobe Illustrator 24.0.0, SVG Export Plug-In  -->
<svg version="1.1" xmlns="http://www.w3.org/2000/svg" xmlns:xlink="http://www.w3.org/1999/xlink" x="0px" y="0px" width="427.7px"
	 height="201.1px" viewBox="0 0 427.7 201.1" style="enable-background:new 0 0 427.7 201.1;" xml:space="preserve">
<style type="text/css">
	.st0{fill:#FFFFFF;}
</style>
<defs>
</defs>
<g id="layer1_2_">
	<text transform="matrix(1.0233 0 0 1 170.0977 82.4622)" class="st0" style="font-family:'ArialMT'; font-size:77.6447px;">M</text>
	<text transform="matrix(1.0233 0 0 1 236.2822 82.4622)" class="st0" style="font-family:'ArialMT'; font-size:64.7041px;">ozaika</text>
	<text transform="matrix(1.0233 0 0 1 170.0977 163.2668)" class="st0" style="font-family:'ArialMT'; font-size:77.6447px;">E</text>
	<text transform="matrix(1.0233 0 0 1 223.0918 163.2668)" class="st0" style="font-family:'ArialMT'; font-size:64.7041px;">nergy</text>
	<text transform="matrix(0.9024 0 0 1 127.3047 136.9387)" class="st0" style="font-family:'ArialMT'; font-size:159.574px;">|</text>
	<path id="path308_2_" class="st0" d="M120.5,21.4c-1.5,0-3.5,0.7-4.8,0.9c-3.3,0.8-6.8,1.2-10.1,1.9c-8.9,1.1-17.8,1.9-26.8,2.5
		c-10.9,0.8-21.7,1.6-32.6,1.9l-2.3,1.8c0-0.1,0-0.3,0.1-0.4c0-0.2,0-0.4,0.1-0.6l-9.8,5.5c0,0.2-0.1,0.4-0.1,0.6
		c-0.3,1.4-0.3,2.8-0.6,4.2c-0.4,1.8-1.1,3.6-1.3,5.4c-0.5,2-1.2,3.9-1.6,5.8c-0.9,3.7-1.9,7.3-2.8,11c-1.6,6.2-3.2,12.4-5,18.6
		c-1.1,4.5-0.3,1-1.4,5.7c-0.7,3-1.7,6-1.3,9.1c0.9,2.3,2,2.5,4.4,2.3c2.1,0,4.3-0.1,6.4,0.5c1.8,0.4,2.2,0.8,2.2,2.6
		c0.1,1.5,0.2,3,0.3,4.4c0.1,1.9,0.2,3.8,0.1,5.8c-0.1,2.9-0.6,5.8-0.9,8.7c-0.3,3.1-0.7,6.3-1,9.4c-0.6,5.1-1.1,10.1-1.6,15.2
		c-0.3,5.8-0.7,11.5-0.1,17.3c0.1,0.5,0.1,2,0.4,2.5c0.1,0.3,0.3,1,0.6,0.9c5.3-2.6,7.2-3.4,8.1-4c0.1-0.1,0.2-0.2,0.3-0.3
		s0.2-0.2,0.3-0.3v-0.1c0.1-0.1,0.2-0.2,0.2-0.2l0,0c0.2-0.4,0.5-0.9,1.3-2s1.6-2.2,2.5-3.3c1.1-1.3,2.1-2.7,2.9-4.1
		c1.5-2.2,3.2-4.3,4.9-6.4c2.3-2.9,4.7-5.7,7.3-8.3c3.6-3.6,6.9-7.5,10.2-11.4c2.9-3.4,5.7-6.9,8.5-10.5c2.5-3,5.1-5.8,7.9-8.5
		c2.9-3,5.7-6,8.6-8.9c1.1-1.4,3.3-4.3,0.5-5.3c-2.2-0.2-4.4,0.3-6.5,0.2c-4.6,0.1-9.2,0.2-13.7-0.1c-1.7,0-2.7,0-4.4-0.2
		c-0.5,0-0.9-0.1-1.3-0.2c-0.2,0-0.5,0-0.7,0l-0.1,0.1c0-0.1,0.1-0.2,0.1-0.3c0.7-1.3,1.1-2.8,1.8-4.2c0.8-1.4,1.8-2.6,2.7-3.9
		c1.5-2,2.9-4.1,4.6-6c2.4-3,5-6,7.3-9.1c2.5-3.2,5.1-6.2,7.5-9.5c3.2-4.3,6.4-8.7,9.9-12.9c3.4-4.2,6.9-8.4,10.8-12.3
		c2.5-2.6,5.1-5.1,7.8-7.6c0.7-0.8,2.2-2.2,1.8-3.4c-0.1-0.2-0.2-0.4-0.4-0.7C121.5,21.5,121,21.4,120.5,21.4L120.5,21.4z
		 M112.1,28.4c-0.2,0.3-0.5,0.8-0.5,0.8c-0.1,0.1-1.3,1.3-1.3,1.3c-2.6,2.4-5.1,4.9-7.6,7.5c-3.7,4-7.1,8.2-10.5,12.4
		c-3.5,4.2-6.7,8.6-10,12.9c-2.4,3.2-5.1,6.3-7.5,9.5c-2.3,3.1-4.9,6.1-7.3,9.1c-1.7,2-3.2,4-4.7,6.2c-1.1,1.2-1.9,2.6-2.7,4
		c-0.5,1.5-1.2,2.8-1.9,4.2c0,0.7-0.1,0.9,0.6,1.4c1.5,1,5.6,0.7,7.3,0.8c4.6,0.1,9.1,0.2,13.7,0.2c2.1,0,4.2-0.2,6.3-0.2
		c-0.2,0,0.7,0,0.7,0.2c0,0.1-0.2,0.2-0.3,0.3c-0.7,0.9-1.3,1.8-2.1,2.7c-3,2.8-5.6,5.9-8.5,8.8c-2.9,2.6-5.5,5.5-7.9,8.6
		c-2.7,3.5-5.5,7-8.5,10.4c-3.3,3.9-6.6,7.7-10.3,11.3c-2.7,2.7-5.1,5.6-7.4,8.5c-0.8,1.1-1.7,2.1-2.5,3.2
		c-0.3-4.5-0.1-8.9,0.2-13.4c0.5-5.1,1.2-10.2,1.8-15.3c0.5-3.2,0.8-6.3,1.1-9.5c0.4-2.9,0.8-5.8,0.9-8.8c0.1-2,0-4-0.1-5.9
		c-0.1-1.5-0.2-3-0.3-4.4c0-2.1-1-3-3-3.7c-2.1-0.7-4.4-0.7-6.6-0.7c-1.7-0.1-3,0.5-3.6-1.3c0-0.4-0.1-0.9-0.1-1.3
		c0.1-2.4,0.8-4.7,1.3-7c0.8-3.2,0.6-2.6,1.4-5.7c1.7-6.2,3.4-12.4,5-18.6c1-3.7,2.1-7.4,3.1-11.1c0.5-2,1.3-3.9,1.7-5.9
		c0.2-1.6,0.7-3.1,1.1-4.7c9.3-0.9,18.6-1.5,28-2.2c8.7-0.5,17.4-1,26.1-1.9c3.3-0.5,6.7-1,10-1.6C108.8,28.8,110.5,28.7,112.1,28.4
		L112.1,28.4z M31.3,163.2c0.2,0.2-1.2,0.8-0.9,0.6S31,163.4,31.3,163.2z"/>
	<path id="path310_2_" class="st0" d="M47.3,142.4c0.2-3.9,1.2-13.8,2.2-21.8c1.7-14.1,2.2-25.5,1.3-29c-0.6-2-2.7-3-8.1-3.5
		l-4.4-0.4l0.1-3.3c0.1-3.1,2-10.8,10.5-41.9c1.4-5.2,2.6-9.4,2.7-9.5c0,0,8.4-0.7,18.6-1.4c34.9-2.4,36.7-2.6,47.3-4.7
		c2-0.4,1.9-0.2-3.6,5.3c-6,6-14.2,15.6-20.7,24.2c-2.1,2.8-7.6,9.8-12.2,15.5C70.2,85.3,68,88.4,66.8,91.2
		c-0.9,2.1-1.3,4.4-0.8,4.7c0.1,0.1,6.4,0.3,14.1,0.5l14,0.3l-7.9,8.2c-4.4,4.5-10.9,11.9-14.6,16.4s-9.1,10.8-12.1,14
		c-3,3.2-6.8,7.4-8.4,9.4c-1.7,2-3.3,3.9-3.6,4.2C47.2,149.3,47.1,146.8,47.3,142.4L47.3,142.4z"/>
	<path id="path316_2_" class="st0" d="M31.3,167.2l-1.6,0.8c0,0.4,0,0.7,0,1.1c0,0.2,0,0.3,0.1,0.5l1.6-0.9c0-0.1-0.1-0.3,0-0.4
		C31.3,167.9,31.3,167.5,31.3,167.2L31.3,167.2z"/>
	<rect id="rect336_2_" x="34.2" y="28.3" class="st0" width="19.2" height="6.5"/>
	<rect id="rect338_2_" x="34.2" y="28.3" class="st0" width="3.4" height="8"/>
	<path id="rect340_2_" class="st0" d="M29.7,157.2v12.7l0,0l0,0l0,0l0,0l0,0l0,0c0,0,0,0,0.1,0l0,0l0,0l0,0c0,0,0,0,0.1-0.1
		c0,0,0,0,0.1,0l0,0l0,0c0,0,0,0,0.1-0.1s0.1-0.1,0.2-0.2c0,0,0,0,0.1-0.1c0,0,0,0,0-0.1c0,0,0-0.1,0.1-0.1c0,0,0,0,0.1,0l0,0
		c0,0,0,0,0-0.1l0.1-0.1v-11.7L29.7,157.2z"/>
	<path id="rect342_2_" class="st0" d="M29.6,161.2v9.4l0.1-0.1l0.1-0.1c0,0,0,0,0.1-0.1c0,0,0,0,0.1-0.1l0,0c0,0,0,0,0.1-0.1l0,0
		c0,0,0,0,0.1-0.1c0,0,0,0,0-0.1c0.1-0.1,0.2-0.3,0.3-0.4l0,0l0,0c0.1-0.1,0.2-0.2,0.3-0.4l0.1-0.1l0,0l0.1-0.1l0.1-0.1
		c0,0,0.2-0.2,0.3-0.2c0.1-0.1,0.2-0.3,0.3-0.4c0.1-0.1,0,0,0.1-0.1s0.1-0.1,0.2-0.2c0.1-0.1,0.1-0.1,0.2-0.1l0.1-0.1
		c0.1-0.1,0.2-0.2,0.2-0.3c0.1-0.1,0.1-0.1,0.2-0.2c0,0,0.1,0,0.1-0.1c0.1-0.1,0.1-0.1,0.2-0.2l0.1-0.1c0.1-0.1,0.2-0.2,0.2-0.2
		c0-0.1,0.1-0.1,0.1-0.2c0,0,0.1-0.1,0.2-0.1c0.1-0.1,0.1,0,0.1-0.1c0.1-0.1,0.2-0.2,0.3-0.3s0.1-0.1,0.2-0.2c0.1,0,0.1-0.1,0.2-0.1
		c0.1-0.1,0.2-0.2,0.3-0.3s0.3-0.2,0.3-0.2l0.1-0.1c0.2-0.2,0.1-0.1,0.3-0.3c0.1-0.1,0.1-0.1,0.2-0.2c0.2-0.2,0.5-0.5,0.7-0.7
		c0.1-0.1,0.1-0.1,0.2-0.2l0.2-0.2c0.1-0.1,0.2-0.2,0.3-0.3s0.1-0.1,0.2-0.2c0.2-0.1,0.3-0.3,0.5-0.4c0.1-0.1,0.2-0.2,0.3-0.3v-0.1
		c0-0.1,0.1-0.1,0.2-0.1v-0.9h-8.6V161.2z M38.2,163L38.2,163C38.1,163,38.1,163,38.2,163C38.1,163,38.1,163,38.2,163L38.2,163
		L38.2,163z M38,165.4L38,165.4L38,165.4L38,165.4L38,165.4z"/>
	<path id="rect512_2_" class="st0" d="M0,201v0.1l0,0C0,201.1,0,201.1,0,201C0,201.1,0,201.1,0,201C0.1,201.1,0.1,201.1,0,201
		c0.1,0,0.1,0,0.1,0H0z"/>
	<path id="rect514_2_" class="st0" d="M0.1,200.7v0.3l0,0l0,0l0,0l0,0c0,0,0,0,0.1-0.1l0,0v-0.1L0.1,200.7z"/>
	<path id="rect516_2_" class="st0" d="M0.1,200.7v0.3l0,0l0,0l0,0l0,0c0,0,0,0,0.1-0.1l0,0v-0.1L0.1,200.7z"/>
	<path id="rect518_2_" class="st0" d="M0.4,200.8L0.4,200.8L0.4,200.8L0.4,200.8z"/>
	<path id="rect534_2_" class="st0" d="M0,201v0.1l0,0C0,201.1,0,201.1,0,201C0,201.1,0,201.1,0,201C0.1,201.1,0.1,201.1,0,201L0,201
		L0,201z"/>
	<path id="path868_2_" class="st0" d="M61.8,126.7c-0.6,1.8-1.6,3.5-2.5,5.2c-1.5,2.5-3.2,4.9-4.8,7.3c-1.3,1.8-2.6,3.6-4.1,5.3
		c-1.3,1.5-2.6,2.9-4,4.4c-1,1.1-2,2.3-3,3.4c-0.3,0.3-0.6,0.7-0.9,1.1c-0.2,0.2-0.4,0.4-0.6,0.6c-0.3,0.4-0.6,0.8-0.9,1.2
		c-0.4,0.6-0.9,1.2-1.4,1.8c-0.2,0.3-0.4,0.5-0.7,0.7c-0.2,0.2-0.4,0.5-0.6,0.8c-0.3,0.3-0.5,0.5-0.8,0.8s0-0.1-0.3,0.2
		c-0.2,0.2-0.3,0.5-0.5,0.7c-0.1,0.1-0.1,0.1-0.2,0.2c-0.2,0.2-0.4,0.5-0.7,0.7c-0.3,0.3,0-0.1-0.3,0.2s-0.5,0.6-0.8,0.9
		c-0.2,0.2-0.1,0.1-0.3,0.3l5.2-2.2l0,0c0.2-0.2,0.1-0.1,0.2-0.3c0.3-0.3,0.5-0.6,0.8-0.9c0.3-0.3,0.6-0.6,0.9-1
		c0.2-0.3,0.4-0.6,0.7-0.9c0.3-0.3,0.6-0.7,0.9-1c0.4-0.5,0.9-1,1.3-1.5c0.5-0.6,0.9-1.2,1.4-1.7c0.4-0.4,0.7-0.8,1-1.2
		c0.4-0.5,0.8-1,1.2-1.5c0.9-1.1,1.9-2.2,2.8-3.3c1.3-1.4,2.5-2.9,3.8-4.3c0.3-0.4,1.2-1.3,1.5-1.7c0.9-1.1,1.7-2.3,2.5-3.5
		c1.6-2.4,3.2-4.8,4.7-7.3c1.1-1.9,2.2-3.8,3.4-5.6L61.8,126.7L61.8,126.7z"/>
	<path id="path870_2_" class="st0" d="M39.4,159.2c-0.2,0.3-0.4,0.6-0.6,0.9c-0.3,0.4-0.5,0.8-0.8,1.2c-0.2,0.3-0.3,0.5-0.5,0.8
		c-0.1,0.3-0.3,0.5-0.4,0.7c-0.1,0.1-0.1,0.2-0.2,0.3c-0.1,0.1,0,0-0.1,0.1s-0.1,0.2-0.2,0.3c-0.1,0.1-0.1,0.2-0.1,0.2l1.6-0.7l0,0
		c0-0.1,0.1-0.1,0.1-0.2c0.1-0.1,0.2-0.2,0.2-0.3c0.1-0.1,0.2-0.3,0.2-0.4c0.1-0.2,0.3-0.5,0.4-0.8c0.1-0.3,0.3-0.5,0.4-0.8
		c0.2-0.4,0.5-0.8,0.7-1.1c0.1-0.1,0.3-0.4,0.3-0.5c0.4-0.5,0,0,0.3-0.4l0.1-0.1L39.4,159.2L39.4,159.2z"/>
	<path id="path874_2_" class="st0" d="M37,163.5c-0.2,0.3-0.5,0.7-0.7,1c-0.4,0.5-0.9,1-1.4,1.4c-0.2,0.2-0.4,0.4-0.6,0.6
		c-0.1,0.1-0.1,0.1-0.2,0.2c-0.3,0.3,0,0-0.4,0.4c-0.3,0.3-0.6,0.6-0.9,0.9c-0.2,0.2-0.4,0.4-0.6,0.5c-0.2,0.1-0.3,0.2-0.5,0.4
		c-0.1,0.1-0.2,0.2-0.3,0.2c-0.1,0.1-0.2,0.2-0.3,0.3l0,0l-0.1,0.1c-0.1,0.1-0.2,0.2-0.2,0.3c-0.2,0.2-0.4,0.4-0.7,0.6
		c-0.1,0.1-0.1,0.1-0.2,0.1l-0.1,0.1l0,0l1.2-0.5l0,0l0,0c0.1-0.1,0.2-0.1,0.3-0.2c0.2-0.2,0.5-0.4,0.7-0.6c0.1-0.1,0.3-0.3,0.4-0.4
		c0.1-0.1,0.2-0.2,0.3-0.3s0.2-0.2,0.3-0.2c0.1-0.1,0.3-0.2,0.4-0.4c0.2-0.2,0.4-0.3,0.6-0.5c0.3-0.3,0.6-0.6,0.9-0.8
		c0.1-0.1,0.2-0.3,0.4-0.4c0.3-0.2,0.5-0.5,0.8-0.7c0.5-0.5,0.9-0.9,1.3-1.4c0.3-0.3,0.6-0.7,0.9-1.1L37,163.5L37,163.5z"/>
	<path id="path876_2_" class="st0" d="M29.9,170.3l0.1-0.1c0.1-0.1,0.2-0.2,0.3-0.4c0.3-0.4,0.7-0.8,0.7-0.8c0.1,0,0.5-0.3,0.8-0.7
		c0.2-0.2,0.4-0.5,0.5-0.5s0.2-0.2,0.2-0.2c0-0.1,0.3-0.3,0.5-0.6c0.2-0.2,0.4-0.5,0.5-0.5c0,0,0.1-0.1,0.2-0.2
		c0.1-0.1,0.2-0.2,0.2-0.2s0.2-0.1,0.3-0.3c0.2-0.1,0.4-0.3,0.4-0.4c0.1-0.1,0.3-0.2,0.4-0.3c0.1-0.1,0.4-0.3,0.5-0.4
		c0.6-0.6,1.1-1,1.1-1s-0.5,0.7-0.8,1c-0.3,0.4-0.8,0.8-1.2,1.2c-0.2,0.2-0.6,0.6-0.8,0.8c-0.7,0.7-1.3,1.2-2.2,2
		c-0.5,0.4-0.5,0.4-1.1,1C30.3,170,30,170.3,29.9,170.3L29.9,170.3L29.9,170.3z"/>
	<path id="path880_2_" class="st0" d="M37.2,163.3L37.2,163.3c-0.9,0.5-0.7,0.3-0.9,0.5c-0.1,0.1-0.1,0.1-0.2,0.2
		c0,0-0.1,0.1-0.1,0.2v0.1v0.1v0.1l0,0c0,0,0,0.1-0.1,0.1c0,0,0,0-0.1,0.1c0,0.1,0,0,0,0l0,0l0,0l0,0l0,0l0,0
		c-0.3,0.1-0.6,0.4,0.7-0.4l0,0l0,0c0,0,0,0-0.1,0c-0.3,0.2-0.5,0.3-0.8,0.5c-0.6,0.3,2.6-1.5-0.1,0.1l0,0l0,0l0,0
		c0.2-0.1,1-0.6,0.7-0.4c0,0-2,1.2,0,0c-0.3,0.2-0.1,0-0.8,0.5c0,0-0.1,0-0.1,0.1l0,0l0,0c0,0,0,0.1-0.1,0.1v0.1l0,0c0,0,0,0,0.1,0
		h0.1c0.3-0.2,0.5-0.3,0.8-0.5l0,0l0,0c0,0,0,0,0.1,0l0,0l0,0c0,0,0-0.1,0.1-0.1c0.3,0.1,0,0-0.8,0.4l0,0l0,0l0,0
		c-0.1,0.1-0.1,0.1-0.2,0.2l-0.1,0.1l-0.1,0.1l0,0c0,0,0,0.1-0.1,0.1c-0.1,0.1,0,0,0,0l-0.1,0.1l-0.1,0.1l-0.1,0.1c0,0,0,0-0.1,0.1
		l0,0l0,0l0,0l0,0l0,0l0,0l0,0l0,0l0,0l0,0c0,0,0,0-0.1,0.1c-0.1,0,0,0,0,0l-0.1,0.1l0,0c-0.1,0-0.1,0.1-0.2,0.1c0,0-0.1,0-0.1,0.1
		l0,0c0.3-0.1,1-0.6,0.8-0.4c-0.3,0.2-0.5,0.3-0.8,0.5l0,0l0,0h-0.1c0.3-0.1,1-0.6,0.8-0.4c-0.3,0.2-0.5,0.3-0.8,0.5l0,0
		c0.3-0.1,1-0.6,0.8-0.4c-0.3,0.2-0.5,0.3-0.8,0.5l-0.1,0.1l0,0c0,0-0.1,0-0.1,0.1l0,0l0,0l0,0c0,0,0,0,0,0.1c0,0,0,0,0,0.1l0,0l0,0
		l0,0l0,0l0,0l0,0l0,0l-0.1,0.1l0,0c0,0,0,0-0.1,0c0,0-0.1,0-0.1,0.1c-0.1,0-0.1,0.1-0.2,0.2l-0.1,0.1l0,0l0,0l0,0l0,0l0,0l0,0l0,0
		l-0.1,0.1l-0.1,0.1c0,0,0,0.1-0.1,0.1c0,0.1,0,0,0,0l0,0l0,0c0,0,0,0-0.1,0.1l-0.1,0.1c0,0,0,0-0.1,0.1l0,0l0,0l0,0
		c0,0-0.1,0-0.1,0.1c0,0,0,0-0.1,0l0,0l0,0c0,0,0,0-0.1,0.1l0,0l0,0c0,0,0,0-0.1,0.1l0,0c-0.1,0.1,0,0,0,0l0,0l0,0
		c0,0-0.1,0-0.1,0.1l0,0l0,0c0,0,0,0-0.1,0.1l0,0l0,0l0,0l0,0c0,0,0,0-0.1,0.1c0,0,0,0-0.1,0l0,0l0,0l0,0l0,0l0,0l0,0c0,0.1,0,0,0,0
		s0,0.1-0.1,0.1c0,0.1,0,0,0,0.1l0,0l0,0c0,0,0,0-0.1,0.1l-0.1,0.1l0,0l0,0l0,0c-0.1,0.1,0.1,0,0,0c0,0,0,0-0.1,0.1l0,0l0,0l0,0l0,0
		l0,0l0,0c0,0,0,0,0,0.1c0,0,0,0,0,0.1c0,0.3,0,0,0.8-0.4l0,0c0,0,0,0,0-0.1v-0.1l0.1-0.1l0,0l0,0l0,0l0,0c0,0,0-0.1,0.1-0.1
		c0-0.1,0.1-0.1,0.1-0.2c0,0,0-0.1,0.1-0.1l0,0l0,0l0.1-0.1c0,0,0.1,0,0.1-0.1l0,0c0,0,0,0,0.1,0l0.1-0.1l0,0l0,0l0,0l0,0
		c0,0,0,0,0.1-0.1l0.1-0.1c0.1-0.1,0.1-0.1,0.2-0.2c0.1-0.1,0.1-0.1,0.2-0.2c0.1-0.1,0.1-0.1,0.2-0.2c0,0,0.1-0.1,0.1-0.2
		c0.1-0.1,0,0,0-0.1s0.1-0.1,0.1-0.2l0.1-0.1c0.1-0.1,0,0,0.1-0.1s0.1-0.1,0.2-0.2c0.1-0.1,0.1-0.1,0.2-0.2c0.1-0.1,0,0,0.1-0.1
		s0.2-0.2,0.3-0.3l0.1-0.1c0,0,0,0,0.1-0.1l0,0c0.1-0.1,0.2-0.2,0.3-0.3s0.2-0.2,0.3-0.3s0.2-0.2,0.3-0.2l0,0c0,0,0,0,0.1-0.1
		c0,0,0.1,0,0.1-0.1c0.1-0.1,0.1-0.1,0.2-0.2c0.1-0.1,0.1-0.2,0.2-0.2c0-0.1,0.1-0.1,0.1-0.1s0-0.1,0.1-0.1c0.1-0.1,0.1-0.1,0.2-0.2
		c0.1-0.1,0.1-0.1,0.2-0.2l0.1-0.1l0,0c0,0,0,0,0.1-0.1c0.1,0,0.1-0.1,0.2-0.1l0.1-0.1c0,0,0,0,0.1-0.1c0,0,0,0,0.1,0
		c-0.3,0.1-0.5,0.3-0.8,0.4c0,0,0-0.1,0,0l0,0v0.1c0,0,0,0,0,0.1s-0.1,0.1-0.1,0.1c0,0.1-0.1,0.1-0.1,0.2c0,0,0,0.1-0.1,0.1
		l-0.1,0.1c0,0,0,0,0,0.1l0,0l0,0c0,0,0,0,0,0.1c0,0,0,0-0.1,0.1l-0.1,0.1c0,0,0,0-0.1,0.1l0,0c-0.1,0,0,0,0,0c-0.1,0.1,0,0,0,0l0,0
		c0,0,0,0-0.1,0c-0.3,0.2,0.5-0.3,0.7-0.4l0,0h-0.1c-2.1,1.2-0.1,0-0.1,0l0,0c0,0,0,0-0.1,0c-0.3-0.1-0.6,0.3-0.9,0.5l0.8-0.3l0,0
		c0.3-0.2,0.6-0.3-0.7,0.4c0,0,0,0,0.1,0l0,0c0,0,2-1.2,0.1,0c0.3-0.2,0.6-0.3,0.9-0.5l0.1-0.1l0,0l0.1-0.1l0.1-0.1l0.1-0.1
		c0,0,0-0.1,0.1-0.1l0.1-0.1c0,0,0-0.1,0.1-0.1c0,0,0.1-0.1,0.1-0.2c0-0.1,0.1-0.1,0.1-0.2c0-0.1,0-0.1,0-0.2V163l0,0
		c0,0,0-0.1-0.1-0.1c-0.3,0.1-0.5,0.3-0.8,0.5l-0.1,0.1l-0.1,0.1c-0.1,0-0.1,0.1-0.2,0.1c-0.1,0.1-0.1,0.1-0.2,0.2
		c-0.1,0.1-0.2,0.1-0.2,0.2c-0.1,0.1-0.1,0.1-0.2,0.2c-0.1,0.1-0.1,0.1-0.2,0.2c-0.1,0.1-0.1,0.2-0.2,0.2c-0.1,0.1-0.1,0.1-0.2,0.2
		c-0.1,0.1-0.1,0.1-0.2,0.2c-0.1,0.1-0.2,0.2-0.2,0.2c-0.1,0.1-0.2,0.2-0.3,0.3s-0.2,0.2-0.3,0.3s-0.1,0.1-0.2,0.2
		c-0.1,0.1-0.2,0.2-0.3,0.3s-0.2,0.2-0.3,0.3s-0.2,0.1-0.2,0.2c-0.1,0.1-0.1,0.1-0.2,0.2c0,0.1-0.1,0.1-0.1,0.2
		c0,0.1-0.1,0.1-0.1,0.2c-0.1,0.1-0.1,0.1-0.2,0.2c-0.1,0.1-0.1,0.1-0.2,0.2c-0.1,0.1-0.1,0.1-0.2,0.2l-0.1,0.1l-0.1,0.1l-0.1,0.1
		c-0.1,0-0.1,0.1-0.2,0.1c-0.1,0-0.1,0.1-0.1,0.1l-0.1,0.1c0,0.1-0.1,0.1-0.1,0.2c0,0,0,0.1-0.1,0.1l0,0l0,0l0,0l-0.1,0.1
		c0,0.1,0,0.1,0,0.2c0,0,0,0,0,0.1l0,0c0.8-0.4,0.9-0.1,0.8-0.4l0,0l0,0c0,0,0,0,0.1,0c0,0,0,0,0.1,0l0,0l0,0c0,0,0-0.1,0.1-0.1
		l0.1-0.1l0.1-0.1l0.1-0.1l0.1-0.1c0,0,0-0.1,0.1-0.1c0,0,0.1,0,0.1-0.1l0.1-0.1l0.1-0.1c0,0,0,0,0.1-0.1l0,0l0,0l0.1-0.1l0.1-0.1
		l0.1-0.1l0.1-0.1c0,0,0,0,0.1,0l0.1-0.1l0.1-0.1l0.1-0.1l0.1-0.1l0.1-0.1l0.1-0.1l0,0c0,0,0,0,0.1,0c0,0,0.1,0,0.1-0.1l0.1-0.1
		c0.1-0.1,0.1-0.1,0.2-0.1c0.1,0,0.1-0.1,0.2-0.1l0.1-0.1l0,0l0,0l0,0l0,0c0-0.1,0,0,0-0.1c0,0,0,0,0-0.1l0,0l0,0l0,0
		c0-0.1,0.1-0.1,0.1-0.1l0.1-0.1c-0.3,0.1-1,0.6-0.8,0.4c0.3-0.2,0.5-0.3,0.8-0.5c0.6-0.4-2.6,1.5,0.1,0l0.1-0.1
		c-1.6,0.9-0.4,0.2,0,0l0,0c0,0,0.1,0,0.1-0.1c0.1,0,0.1-0.1,0.2-0.1l0.1-0.1c0.1,0,0.1-0.1,0.1-0.1l0.1-0.1c0-0.1,0,0,0,0
		s0-0.1,0.1-0.1l0.1-0.1l0.1-0.1l0.1-0.1l0.1-0.1l0.1-0.1l0.1-0.1l0.1-0.1c0.1-0.1,0.1-0.1,0.2-0.2c0.3-0.4-0.4,0.1-0.8,0.2l0,0
		c0,0,0,0.1-0.1,0.1c0,0-0.1,0.1-0.2,0.1c0.2-0.1,0.5-0.3,0.7-0.4c0.1,0,0,0,0,0l0,0l0,0l0,0l0,0l0,0l0.1-0.1c0,0,0,0,0.1,0l0,0
		c-0.4,0.2-1,0.6-0.7,0.4c2.3-1.3-0.1,0.1,0.1,0c0.3-0.2,0.5-0.3,0.8-0.5c0,0,0.1,0,0.1-0.1c-2.5,1.4,1.8-1.1-0.7,0.4H37
		c0,0,0,0,0.1,0c0.3-0.2,0.5-0.3,0.8-0.5l0,0l0,0c0,0,0-0.1,0.1-0.1l0,0c0,0,0,0,0.1-0.1c0,0,0-0.1,0.1-0.1v-0.1
		c0-0.1,0.1-0.1,0.1-0.2c0-0.1,0.1-0.1,0.1-0.1c0-0.1,0.1-0.1,0.2-0.2c0.3-0.2,0.1-0.1-0.7,0.4l0,0c0,0,0,0,0.1,0l0,0L37.2,163.3
		L37.2,163.3z"/>
	<path id="path882_2_" class="st0" d="M36.3,163.6c0,0,0,0.1,0,0.2c0,0.1,0,0.1,0,0.2v0.1l0.8-0.4l0,0v-0.1c0-0.1,0-0.1,0-0.2
		c0-0.1,0-0.1,0-0.2L36.3,163.6L36.3,163.6z"/>
</g>
</svg>
