<svg width="10" height="10" viewBox="0 0 10 10" fill="none" xmlns="http://www.w3.org/2000/svg">
<path d="M0.681895 8.40895H2.27283V9.77276C2.27283 9.83912 2.29406 9.89344 2.33678 9.9359C2.37937 9.97863 2.43383 10 2.50017 10H3.68619C3.74774 10 3.801 9.97863 3.84599 9.9359C3.89098 9.89344 3.9134 9.8391 3.9134 9.77276V8.40895H7.50004C7.56624 8.40895 7.62072 8.38785 7.66341 8.34512C7.70615 8.30242 7.72736 8.24806 7.72736 8.18171V7.27258C7.72736 7.20662 7.70615 7.15191 7.66341 7.10945C7.62083 7.06671 7.56624 7.04534 7.50004 7.04534H3.91329V6.20724H6.32806C7.27498 6.20724 8.04783 5.9187 8.64695 5.34081C9.24584 4.76352 9.54543 4.0178 9.54543 3.10362C9.54543 2.19004 9.24584 1.44431 8.64695 0.866431C8.04794 0.289124 7.27496 0 6.32806 0H2.50005C2.43369 0 2.37935 0.0213476 2.33666 0.0638272C2.29406 0.106542 2.27271 0.161234 2.27271 0.227218V4.69465H0.681895C0.615558 4.69465 0.561199 4.7171 0.518504 4.76207C0.475927 4.80706 0.454559 4.86032 0.454559 4.92185V5.97998C0.454559 6.04634 0.475789 6.1007 0.518504 6.14339C0.561219 6.18613 0.615441 6.20722 0.681895 6.20722H2.27283V7.04532H0.681895C0.615558 7.04532 0.561199 7.06669 0.518504 7.10943C0.475927 7.15189 0.454559 7.20648 0.454559 7.27256V8.18169C0.454559 8.24804 0.475789 8.3024 0.518504 8.3451C0.561199 8.38785 0.615539 8.40895 0.681895 8.40895ZM3.91329 1.51294H6.18602C6.68785 1.51294 7.09261 1.65967 7.40048 1.95322C7.70819 2.24679 7.86211 2.63044 7.86211 3.10374C7.86211 3.57727 7.70819 3.96103 7.40048 4.25425C7.09261 4.54806 6.68783 4.69479 6.18602 4.69479H3.91329V1.51294Z" fill="black"/>
</svg>
